<svg id="Layer_1" enable-background="new 0 0 512.52 512.52" height="512" viewBox="0 0 512.52 512.52" width="512" xmlns="http://www.w3.org/2000/svg"><g><path d="m150.1 158.58c-37.243 0-67.542 30.299-67.542 67.542s30.299 67.542 67.542 67.542 67.543-30.299 67.543-67.542-30.3-67.542-67.543-67.542z" fill="#F7F7EE"/><path d="m260.805 468.424v-91.893c0-45.691-37.173-82.864-82.864-82.864h-12.841v134.298h-30v-134.298h-12.841c-45.691 0-82.864 37.172-82.864 82.864v91.893h-39.395v30h512v-30z" fill="#F7F7EE"/><path d="m501.011 144.181c-17.675-49.323-53.498-88.811-100.872-111.189s-100.629-24.97-149.95-7.295c-31.008 11.111-58.874 29.941-80.586 54.454l22.457 19.892c18.377-20.748 41.977-36.69 68.249-46.104 41.777-14.97 86.887-12.776 127.016 6.18 40.129 18.957 70.474 52.405 85.444 94.184 26.607 74.252-3.067 155.218-66.869 196.024l15.855-39.484-27.84-11.179-36.474 90.832 92.857 28.108 8.691-28.713-40.278-12.192c77.633-47.456 114.173-144.568 82.3-233.518z" fill="#FB7813"/><g><g><path d="m299.876 203.465c6.036-7.994 8.97-16.046 8.97-24.618 0-9.072-2.522-16.543-7.497-22.205-6.043-6.882-14.577-10.372-25.364-10.372-8.882 0-16.621 2.979-23.051 8.901-6.289 5.949-9.73 13.339-10.228 21.965l-.252 4.378 21.631 4.121.53-5.453c.764-7.853 5.014-12.541 11.369-12.541 5.014 0 7.017 1.722 8.055 2.979 1.762 2.176 2.582 4.79 2.582 8.226 0 4.65-1.053 8.202-7.044 15.828l-39.011 49.97v12.264h70.128v-21.371h-35.612z" fill="#F7F7EE"/></g><g><path d="m380.621 214.359v-66.951h-21.258l-44.178 77.015v11.307h43.211v21.18h22.225v-21.18h12.367v-21.371zm-35.696 0 13.472-24.039v24.039z" fill="#F7F7EE"/></g></g></g></svg>